<?xml version="1.0" standalone="no"?>
<!DOCTYPE svg PUBLIC "-//W3C//DTD SVG 20010904//EN"
 "http://www.w3.org/TR/2001/REC-SVG-20010904/DTD/svg10.dtd">
<svg version="1.0" xmlns="http://www.w3.org/2000/svg"
 width="1024.000000pt" height="1024.000000pt" viewBox="0 0 1024.000000 1024.000000"
 preserveAspectRatio="xMidYMid meet">

<g transform="translate(0.000000,1024.000000) scale(0.100000,-0.100000)"
fill="#000000" stroke="none">
<path d="M0 5120 l0 -5120 5120 0 5120 0 0 5120 0 5120 -5120 0 -5120 0 0
-5120z m5258 1500 c105 -14 294 -58 387 -90 212 -73 391 -186 555 -350 125
-125 182 -203 272 -371 78 -145 115 -249 158 -444 l31 -139 -10 -160 c-21
-330 -132 -619 -337 -882 -216 -277 -594 -487 -982 -544 -330 -48 -614 -5
-917 140 -373 179 -628 481 -781 925 -19 55 -37 118 -38 140 -2 22 -9 88 -16
147 -12 110 -8 238 9 297 6 19 8 38 5 42 -2 5 10 61 27 126 17 65 34 127 37
138 12 48 106 233 153 303 144 212 263 339 414 442 28 18 62 41 76 51 98 66
308 150 459 185 209 47 364 61 498 44z m2343 -1222 c93 -49 164 -147 172 -238
13 -140 -67 -288 -182 -338 -51 -22 -181 -18 -231 8 -192 98 -251 354 -117
506 37 42 90 76 147 95 50 17 147 2 211 -33z m-4709 -7 c61 -29 112 -80 145
-144 23 -44 27 -65 27 -137 1 -101 -20 -155 -87 -220 -87 -84 -192 -111 -298
-75 -118 40 -223 202 -205 315 20 126 106 244 202 274 66 21 157 16 216 -13z"/>
<path d="M5025 6504 c-178 -24 -290 -54 -410 -109 -99 -46 -248 -181 -346
-315 -21 -29 -71 -126 -120 -235 -30 -66 -89 -277 -107 -380 -58 -332 -53
-521 23 -856 29 -130 123 -361 181 -443 94 -136 217 -245 360 -321 27 -14 101
-44 164 -65 340 -115 739 -46 1020 178 87 69 124 107 174 177 37 52 136 247
136 269 0 6 4 16 10 22 21 21 60 149 90 294 73 355 47 712 -76 1064 -60 170
-193 379 -305 480 -158 142 -398 231 -648 240 -64 2 -129 2 -146 0z"/>
<path d="M7393 5315 c-57 -26 -97 -79 -113 -148 -28 -126 79 -258 209 -259 86
0 159 60 180 150 23 95 -27 210 -109 252 -59 30 -111 32 -167 5z"/>
<path d="M2677 5289 c-48 -25 -93 -95 -102 -157 -12 -88 37 -175 120 -213 166
-77 328 115 244 289 -45 92 -169 130 -262 81z"/>
</g>
</svg>
